<?xml version="1.0" encoding="UTF-8" standalone="no"?>
<svg
   xmlns:dc="http://purl.org/dc/elements/1.1/"
   xmlns:cc="http://creativecommons.org/ns#"
   xmlns:rdf="http://www.w3.org/1999/02/22-rdf-syntax-ns#"
   xmlns:svg="http://www.w3.org/2000/svg"
   xmlns="http://www.w3.org/2000/svg"
   xmlns:sodipodi="http://sodipodi.sourceforge.net/DTD/sodipodi-0.dtd"
   xmlns:inkscape="http://www.inkscape.org/namespaces/inkscape"
   version="1.1"
   id="Layer_1"
   x="0px"
   y="0px"
   viewBox="0 0 241.95148 205.46552"
   xml:space="preserve"
   sodipodi:docname="FREE CHINESE ICON SET.svg"
   width="241.95148"
   height="205.46552"
   inkscape:version="1.0.2 (e86c8708, 2021-01-15)"><metadata
   id="metadata969"><rdf:RDF><cc:Work
       rdf:about=""><dc:format>image/svg+xml</dc:format><dc:type
         rdf:resource="http://purl.org/dc/dcmitype/StillImage" /><dc:title></dc:title></cc:Work></rdf:RDF></metadata><defs
   id="defs967" /><sodipodi:namedview
   pagecolor="#ffffff"
   bordercolor="#666666"
   borderopacity="1"
   objecttolerance="10"
   gridtolerance="10"
   guidetolerance="10"
   inkscape:pageopacity="0"
   inkscape:pageshadow="2"
   inkscape:window-width="1440"
   inkscape:window-height="814"
   id="namedview965"
   showgrid="false"
   inkscape:snap-nodes="false"
   inkscape:snap-global="false"
   fit-margin-top="0"
   fit-margin-left="0"
   fit-margin-right="0"
   fit-margin-bottom="0"
   inkscape:zoom="1.0932726"
   inkscape:cx="114.13246"
   inkscape:cy="47.949958"
   inkscape:window-x="0"
   inkscape:window-y="0"
   inkscape:window-maximized="1"
   inkscape:current-layer="XMLID_38_" />
<style
   type="text/css"
   id="style833">
	.st0{fill:#070809;}
</style>



<g
   id="XMLID_29_"
   transform="translate(-97.115741,-535.8)">
	<g
   id="XMLID_30_">
		<path
   id="XMLID_248_"
   class="st0"
   d="m 218.1,714.3 c -1.9,0 -3.7,-0.7 -5.2,-2.1 L 99.4,603.2 c -2.1,-2 -2.8,-5 -1.9,-7.7 0.8,-2.4 20.6,-59.7 120.6,-59.7 100,0 119.8,57.2 120.6,59.7 0.9,2.7 0.1,5.7 -1.9,7.7 l -113.5,109 c -1.5,1.4 -3.3,2.1 -5.2,2.1 z M 113.6,596 218,696.3 322.6,596 c -6.2,-11.9 -30.3,-45.2 -104.5,-45.2 -73.8,0 -98.1,33.4 -104.5,45.2 z" />
	</g>
	
	<g
   id="XMLID_26_">
		<g
   id="XMLID_36_">
			
				<rect
   id="XMLID_246_"
   x="268.39999"
   y="553.59998"
   transform="matrix(0.858,0.5137,-0.5137,0.858,352.0911,-53.3593)"
   class="st0"
   width="5.2362823"
   height="156.58104" />
		</g>
		<g
   id="XMLID_31_">
			
				<rect
   id="XMLID_245_"
   x="243.3"
   y="544.90002"
   transform="matrix(0.958,0.2867,-0.2867,0.958,183.2642,-45.6366)"
   class="st0"
   width="5.8230143"
   height="155.41727" />
		</g>
		<g
   id="XMLID_32_">
			<rect
   id="XMLID_244_"
   x="213.89999"
   y="547.29999"
   class="st0"
   width="5.8056588"
   height="150.70566" />
		</g>
		<g
   id="XMLID_33_">
			
				<rect
   id="XMLID_243_"
   x="130.60001"
   y="598.79999"
   transform="matrix(0.2867,0.958,-0.958,0.2867,712.233,249.2777)"
   class="st0"
   width="166.62485"
   height="5.9467411" />
		</g>
		<g
   id="XMLID_35_">
			
				<rect
   id="XMLID_242_"
   x="108.5"
   y="606.70001"
   transform="matrix(0.5136,0.858,-0.858,0.5136,603.9819,156.3412)"
   class="st0"
   width="163.55939"
   height="5.9009247"
   ry="0" />
		</g>
	</g>
	<g
   id="XMLID_38_">
		<path
   id="XMLID_239_"
   class="st0"
   d="m 218.23783,741.26551 c -10,0 -20,-3.5 -29.8,-10.4 -3.1,-2.2 -4.1,-6.3 -2.3,-9.7 l 32.1,-37.4 32.1,37.4 c 1.8,3.3 0.8,7.5 -2.3,9.7 -9.8,7 -19.8,10.4 -29.8,10.4 z"
   sodipodi:nodetypes="scccccs" />
	</g>
</g>




</svg>
