<svg width="108" height="98" viewBox="0 0 108 98" fill="none" xmlns="http://www.w3.org/2000/svg">
    <g clip-path="url(#clip0_31_23)">
        <rect width="108" height="98" fill="white"/>
        <path d="M54.0038 85.1384C53.1557 85.1384 52.3522 84.8045 51.6827 84.1368L1.01963 32.1475C0.0822482 31.1936 -0.230212 29.7627 0.171522 28.4749C0.528618 27.3301 9.36676 0 54.0038 0C98.6409 0 107.479 27.2824 107.836 28.4749C108.238 29.7627 107.881 31.1936 106.988 32.1475L56.3249 84.1368C55.6554 84.8045 54.8519 85.1384 54.0038 85.1384V85.1384ZM7.35809 28.7133L53.9592 76.553L100.65 28.7133C97.882 23.0374 87.1245 7.15449 54.0038 7.15449C21.0617 7.15449 10.2149 23.0851 7.35809 28.7133V28.7133Z"
              fill="#D20F80"/>
        <path d="M91.6715 12.5902L89.6661 11.3073L53.762 75.3859L55.7674 76.6689L91.6715 12.5902Z" fill="#D20F80"/>
        <path d="M75.2516 5.72413L72.7615 4.92786L52.8721 75.9431L55.3622 76.7394L75.2516 5.72413Z" fill="#D20F80"/>
        <path d="M54.7205 5.48511H52.129V77.3665H54.7205V5.48511Z" fill="#D20F80"/>
        <path d="M56.5467 81.0341L35.223 4.89771L32.6801 5.7109L54.0038 81.8473L56.5467 81.0341Z" fill="#D20F80"/>
        <path d="M56.2638 78.9709L18.7668 12.0364L16.5068 13.4819L54.0038 80.4164L56.2638 78.9709Z" fill="#D20F80"/>
        <path d="M54.0653 98C49.6016 98 45.1379 96.3306 40.7635 93.0396C39.3797 91.9902 38.9334 90.0347 39.7368 88.413L54.0653 70.5745L68.3938 88.413C69.1973 89.987 68.7509 91.9902 67.3672 93.0396C62.9927 96.3783 58.529 98 54.0653 98V98Z"
              fill="#D20F80"/>
    </g>
    <defs>
        <clipPath id="clip0_31_23">
            <rect width="108" height="98" fill="white"/>
        </clipPath>
    </defs>
</svg>
